<svg width="862" height="238" viewBox="0 0 862 238" fill="none" xmlns="http://www.w3.org/2000/svg">
<g clip-path="url(#clip0_5764_11196)">
<path d="M228.773 0.000976562H-0.000976562V141.433H72.9486V65.2487H111.408L157.56 141.433H234.355L178.031 56.0519C201.603 44.9908 220.088 24.733 228.773 0.000976562Z" fill="white"/>
<path d="M263.888 0.000976562V141.433H372.568C441.423 141.433 498.741 80.5354 511.147 0.000976562H263.888Z" fill="white"/>
<path d="M538.185 0.000976562L584.46 141.433H649.844L702.819 9.07354L758.275 141.433H823.658L868.442 0.000976562H538.185Z" fill="white"/>
<path d="M1.61568 207.675C1.61568 190.152 13.898 177.475 30.7707 177.475C43.4252 177.475 54.715 186.174 57.4444 197.981L50.3728 198.976C48.2637 190.275 40.0755 183.938 30.7707 183.938C17.9921 183.938 8.93543 193.88 8.93543 207.675C8.93543 221.47 18.1162 231.537 30.7707 231.537C39.8273 231.537 48.1396 225.323 50.3728 216.996L57.3204 218.363C54.4669 229.673 43.3011 237.875 30.7707 237.875C13.7739 238 1.49161 225.323 1.61568 207.675Z" fill="white"/>
<path d="M105.577 207.675C105.577 190.027 118.232 177.475 135.973 177.475C153.838 177.475 166.368 190.027 166.368 207.675C166.368 225.447 153.714 237.875 135.973 237.875C118.232 238 105.577 225.447 105.577 207.675ZM159.173 207.675C159.173 193.88 149.62 183.938 136.097 183.938C122.574 183.938 112.897 193.88 112.897 207.675C112.897 221.47 122.574 231.537 136.097 231.537C149.496 231.537 159.173 221.594 159.173 207.675Z" fill="white"/>
<path d="M218.474 179.589H230.011L248.621 225.822H249.366L268.099 179.589H279.513V236.013H272.194V188.786H271.449L252.467 236.013H245.52L226.538 188.911H225.794V236.013H218.474V179.589Z" fill="white"/>
<path d="M334.47 179.59H356.925C369.208 179.59 377.272 186.053 377.147 196.865C377.147 207.554 368.959 214.14 356.925 214.14H341.541V236.014H334.47V179.59ZM356.925 207.677C365.113 207.677 369.952 203.452 369.952 196.865C369.952 190.278 365.113 185.928 356.925 185.928H341.541V207.677H356.925Z" fill="white"/>
<path d="M427.276 214.265V179.59H434.596V214.265C434.596 224.331 441.172 231.54 450.476 231.54C459.657 231.54 466.232 224.331 466.232 214.265V179.59H473.552V214.265C473.552 228.06 463.999 238.002 450.6 238.002C437.077 238.002 427.276 228.06 427.276 214.265Z" fill="white"/>
<path d="M540.175 185.926H521.565V179.464H566.104V185.926H547.371V235.888H540.051V185.926H540.175Z" fill="white"/>
<path d="M615.856 179.59H654.562V186.053H623.298V203.7H651.338V210.163H623.173V229.8H655.305V236.262H615.856V179.59Z" fill="white"/>
<path d="M706.54 179.59H731.106C743.39 179.59 751.455 186.301 751.455 196.741C751.455 206.311 743.883 213.022 733.462 213.519H732.474L752.942 236.014H743.764L724.284 213.892H713.862V236.014H706.54V179.59ZM730.981 207.554C739.047 207.554 744.008 203.452 744.008 196.741C744.008 190.154 739.047 186.053 730.981 186.053H713.737V207.554H730.981Z" fill="white"/>
<path d="M800.083 217.617H807.274C807.399 226.318 813.479 231.537 824.025 231.537C833.209 231.537 838.539 227.56 838.539 221.222C838.539 213.516 830.723 212.149 822.288 210.782C812.116 209.167 800.952 206.556 800.952 194.252C800.952 184.062 808.643 177.475 822.288 177.475C836.058 177.475 844.499 184.683 844.618 196.614H837.551C837.551 188.66 831.966 183.938 822.288 183.938C813.235 183.938 808.268 187.914 808.268 193.88C808.268 201.337 815.84 202.704 824.15 203.947C834.321 205.687 845.986 207.924 845.986 220.725C845.986 231.289 837.92 237.875 824.15 237.875C809.136 238 800.083 230.17 800.083 217.617Z" fill="white"/>
</g>
<defs>
<clipPath id="clip0_5764_11196">
<rect width="868.447" height="238" fill="white"/>
</clipPath>
</defs>
</svg>
